# xmcd
#
# Track frame offsets: 
#        150
#        22719
#        40645
#        70631
#        100029
#        130070
#        166731
#        203326
#        220421
#        243626
#
# Disc length: 3630 seconds
#
# Revision: 0
# Processed by: cddbd v1.5.2PL0 Copyright (c) Steve Scherf et al.
# Submitted via: ExactAudioCopy v1.0b1
#
DISCID=730e2c0a
DTITLE=Leo Kysela - Live Im Bad Zur Sonne
DYEAR=2006
DGENRE=Blues
TTITLE0=Love Is Blindness (U2)
TTITLE1=With Or Without You (U2)
TTITLE2=All Along The Watchtower (Bob Dylan)
TTITLE3=Hurry Make Love (Nancy Simmonds)
TTITLE4=Cello - Solo (Stefan Wedam)
TTITLE5=Georgia On My Mind (Philip Carmichel - Steve C.)
TTITLE6=Wonna Go Downtown (Leo Kysela)
TTITLE7=Winternight (Leo Kysela)
TTITLE8=Ain´t No Sunshine, When She´s Gone (Bill Withers)
TTITLE9=Little Sister (Leo Kysela)
EXTD=
EXTT0=
EXTT1=
EXTT2=
EXTT3=
EXTT4=
EXTT5=
EXTT6=
EXTT7=
EXTT8=
EXTT9=
PLAYORDER=
